<?xml version="1.0" encoding="utf-8"?>
<!-- Generator: Adobe Illustrator 24.3.0, SVG Export Plug-In . SVG Version: 6.00 Build 0)  -->
<svg version="1.1" id="Layer_1" xmlns="http://www.w3.org/2000/svg" xmlns:xlink="http://www.w3.org/1999/xlink" x="0px" y="0px"
	 viewBox="0 0 50 50" style="enable-background:new 0 0 50 50;" xml:space="preserve">
<style type="text/css">
	.st0{fill:#FFFFFF;}
</style>
<g>
	<path class="st0" d="M6.3,31.3c0-8.4,0-16.8,0-25.2c0.3,0,0.5,0,0.8,0c5.5,4.4,10.9,8.8,16.4,13.2c0-4.4,0-8.8,0-13.2
		c2,0,3.9,0,5.9,0c0,8.4,0,16.8,0,25.2c-0.2,0-0.5,0-0.7,0c-5.5-4.3-11-8.5-16.4-12.8c0,4.3,0,8.6,0,12.9
		C10.3,31.3,8.3,31.3,6.3,31.3z"/>
	<g>
		<g>
			<g>
				<path class="st0" d="M47.6,36.5c-0.7-1.6-5.3-0.9-5.6-0.8c-1.8-1.2-3.6-2.4-5.4-3.6c-0.7,0.1-1.4,0.1-2.1,0.2
					c1,1.4,2.1,2.7,3.1,4.1l-6.4,1.2c-0.7-0.7-1.3-1.4-2-2h-1.3c0.5,1.3,1,2.7,1.5,4c2.7,0.2,5.3,0.4,8,0.6c-0.7,1.3-1.5,2.7-2.2,4
					c0.7-0.1,1.4-0.1,2.1-0.2l4.5-4.2c0.3-0.1,0.7-0.1,1.2-0.3c1.1-0.2,1.6-0.4,2-0.5c1.1-0.3,2.6-0.8,2.8-1.7
					C47.7,37,47.6,36.7,47.6,36.5z M37.8,39.5l-0.2,0c-0.2,0-0.3-0.1-0.3-0.3l0-0.2c0-0.2,0.1-0.3,0.3-0.3l0.2,0
					c0.2,0,0.3,0.1,0.3,0.3l0,0.2C38.1,39.4,38,39.5,37.8,39.5z M39,39.4l-0.2,0c-0.2,0-0.3-0.1-0.3-0.3l0-0.2
					c0-0.2,0.1-0.3,0.3-0.3l0.2,0c0.2,0,0.3,0.1,0.3,0.3l0,0.2C39.3,39.2,39.2,39.4,39,39.4z M40.3,39.2l-0.1,0
					c-0.2,0-0.3-0.1-0.3-0.2l0-0.1c0-0.2,0.1-0.3,0.2-0.3l0.1,0c0.2,0,0.3,0.1,0.3,0.2l0,0.1C40.6,39,40.5,39.2,40.3,39.2z M41.6,39
					l-0.1,0c-0.2,0-0.3-0.1-0.4-0.2l0-0.1c0-0.2,0.1-0.3,0.2-0.4l0.1,0c0.2,0,0.3,0.1,0.4,0.2l0,0.1C41.9,38.8,41.8,38.9,41.6,39z
					 M42.9,38.6l-0.1,0c-0.2,0-0.3,0-0.4-0.2l0-0.1c0-0.2,0-0.3,0.2-0.4l0.1,0c0.2,0,0.3,0,0.4,0.2l0,0.1
					C43.2,38.4,43.1,38.6,42.9,38.6z M45.2,37.9c-0.4,0.2-0.7,0.2-1,0.3c0-0.2-0.1-0.5-0.1-0.7c0.3-0.1,0.6-0.2,0.9-0.3
					c0.3-0.1,0.6-0.2,0.8-0.3c0.1,0.2,0.3,0.4,0.4,0.6C45.9,37.6,45.6,37.8,45.2,37.9z"/>
			</g>
		</g>
		<path class="st0" d="M6.1,27c0,0.7,0,1.4,0,2.2c-0.3,1.2-0.2,2-0.1,2.5c0,0,1.4,5.1,14.1,6.3c0.1,0,0.2,0,0.2,0c0.3,0,0.5,0,0.6,0
			c3.2,0.2,5.7,0,7.4-0.2c-4.3,0.7-7.8,0.7-10.4,0.6c-4.6-0.2-6.6-0.9-7.6-1.3c-2.3-0.9-5.5-2.2-6-5C3.8,29.8,5.6,27.6,6.1,27z"/>
		<path class="st0" d="M6.1,25.6c-4.1,4.6-3.4,7.4-3.2,8c1.5,4.9,12.1,5.4,15.9,5.5c4,0.2,7.3-0.3,9.4-0.7c-2.3,0.8-6,1.8-10.7,1.8
			c-5.5,0-15.9-1.4-17.1-6.2c-0.6-2.3,1.1-5,1.6-5.7c1.4-2.2,3.3-3.3,4.1-3.7C6.1,24.9,6.1,25.2,6.1,25.6z"/>
	</g>
	<g>
		<g>
			<path class="st0" d="M41.2,5.9L41.2,5.9c-6.5,0-10.6,7.1-7.4,12.8l7.4,12.8l7.4-12.8C51.8,13,47.7,5.9,41.2,5.9z M41.1,21.2
				c-3.4-2.5-5.5-5.3-5.3-7.4c0.1-0.5,0.2-1.7,1.1-2.4c0.4-0.3,0.9-0.5,1.6-0.5c1.7,0,2.6,1.4,2.6,1.4c0.1-0.2,0.9-1.3,2.3-1.4
				c0.3,0,1.2,0,1.9,0.5c0.9,0.7,1,1.8,1.1,2.4C46.8,15.9,44.6,18.8,41.1,21.2z"/>
		</g>
	</g>
</g>
</svg>
