<?xml version="1.0" encoding="utf-8"?>
<!-- Generator: Adobe Illustrator 24.3.0, SVG Export Plug-In . SVG Version: 6.00 Build 0)  -->
<svg version="1.1" id="Layer_1" xmlns="http://www.w3.org/2000/svg" xmlns:xlink="http://www.w3.org/1999/xlink" x="0px" y="0px"
	 viewBox="0 0 110.1 53.2" style="enable-background:new 0 0 110.1 53.2;" xml:space="preserve">
<style type="text/css">
	.st0{fill:#FFFFFF;}
	.st1{fill:#F8E589;}
</style>
<g>
	<path class="st0" d="M9.2,35c0-11.5,0-22.9,0-34.4c0.4,0,0.7,0,1.1,0c7.4,6,14.9,12,22.3,18c0-6,0-12,0-18c2.7,0,5.3,0,8,0
		c0,11.4,0,22.8,0,34.3c-0.3,0-0.7,0-1,0c-7.5-5.8-14.9-11.6-22.4-17.4c0,5.8,0,11.7,0,17.5C14.5,35,11.9,35,9.2,35z"/>
	<path class="st0" d="M70.1,11.4v14.1c0,1.8,0,3.2,0.1,4.4c0.1,1.2,0.2,2.2,0.3,3.1l-7.3,2l-0.7-2.1c-1,0.7-1.9,1.3-2.9,1.6
		c-0.9,0.3-1.9,0.5-3,0.5c-2.9,0-5.3-1.2-7.3-3.5c-2-2.3-3-5.2-3-8.6c0-3.6,1.1-6.6,3.3-9c2.2-2.4,5-3.5,8.4-3.5
		c0.8,0,1.6,0.1,2.4,0.3c0.8,0.2,1.8,0.5,2.8,1L70.1,11.4z M62.2,17.1c-0.5-0.3-0.9-0.5-1.3-0.6c-0.4-0.1-0.8-0.2-1.3-0.2
		c-1.5,0-2.7,0.6-3.7,1.9c-1,1.2-1.5,2.8-1.5,4.7c0,1.8,0.4,3.2,1.3,4.4c0.9,1.2,2,1.8,3.3,1.8c0.5,0,1-0.1,1.6-0.4
		c0.5-0.3,1.1-0.7,1.7-1.3V17.1z"/>
	<path class="st0" d="M84,35L72.7,11.1h8.6l3.7,8.6l3.9-8.6h7.2L84.7,35H84z"/>
	<path class="st0" d="M107.5,34.9h-7.9c0-7.1,0-14.3,0-21.4c-0.1-0.1-0.3-0.1-0.4-0.2c-0.2-0.2-0.4-0.3-0.6-0.5
		c-0.1-0.1-0.3-0.4-0.3-0.8c0-0.7,0.8-1.2,1.2-1.5c0.4-0.2,0.7-0.4,0.9-0.4c0.4-0.1,0.8-0.2,1-0.2c-0.2,0.2-0.9,0.9-0.7,1.7
		c0.3,1.3,2.7,1.3,2.9,1.3c1,0,2.9-0.3,3.1-1.4c0.1-0.7-0.5-1.5-0.8-1.7c0.2,0,0.5,0.1,0.9,0.2c0.2,0.1,0.6,0.2,1,0.4
		c0.4,0.2,1.4,0.7,1.4,1.5c0,0.6-0.4,1.1-0.7,1.3c-0.1,0.1-0.3,0.2-0.5,0.3c-0.2,0.1-0.4,0.2-0.5,0.2
		C107.5,20.7,107.5,27.8,107.5,34.9z"/>
	<g>
		<g>
			<path class="st1" d="M65.3,42.2C64.3,40,58,41,57.7,41c-2.5-1.6-4.9-3.3-7.4-4.9c-1,0.1-1.9,0.2-2.9,0.3c1.4,1.9,2.8,3.7,4.2,5.6
				c-2.9,0.5-5.8,1.1-8.7,1.6c-0.9-0.9-1.8-1.9-2.7-2.8c-0.6,0-1.2,0-1.7,0c0.7,1.8,1.3,3.6,2,5.4c3.6,0.3,7.3,0.5,10.9,0.8
				c-1,1.8-2,3.6-3,5.5c0.9-0.1,1.9-0.2,2.8-0.3c2-1.9,4-3.8,6.1-5.7c0.4-0.1,0.9-0.2,1.6-0.3c1.5-0.3,2.2-0.5,2.7-0.6
				c1.5-0.4,3.5-1,3.8-2.3C65.5,42.8,65.4,42.4,65.3,42.2z M52.1,46.2l-0.4,0c-0.2,0-0.3-0.1-0.3-0.3l0-0.4c0-0.2,0.1-0.3,0.3-0.3
				l0.4,0c0.2,0,0.3,0.1,0.3,0.3l0,0.4C52.4,46.1,52.3,46.2,52.1,46.2z M53.8,46.1l-0.4,0.1c-0.2,0-0.3-0.1-0.3-0.3L53,45.4
				c0-0.2,0.1-0.3,0.3-0.3l0.4-0.1c0.2,0,0.3,0.1,0.3,0.3l0.1,0.4C54.1,45.9,54,46,53.8,46.1z M55.5,45.8l-0.4,0.1
				c-0.2,0-0.3-0.1-0.3-0.2l-0.1-0.4c0-0.2,0.1-0.3,0.2-0.3l0.4-0.1c0.2,0,0.3,0.1,0.3,0.2l0.1,0.4C55.8,45.6,55.7,45.8,55.5,45.8z
				 M57.3,45.5l-0.4,0.1c-0.2,0-0.3-0.1-0.4-0.2l-0.1-0.4c0-0.2,0.1-0.3,0.2-0.4l0.4-0.1c0.2,0,0.3,0.1,0.4,0.2l0.1,0.4
				C57.6,45.3,57.5,45.4,57.3,45.5z M59.1,45l-0.4,0.1c-0.2,0-0.3,0-0.4-0.2l-0.1-0.4c0-0.2,0-0.3,0.2-0.4l0.4-0.1
				c0.2,0,0.3,0,0.4,0.2l0.1,0.4C59.3,44.8,59.3,44.9,59.1,45z M62,44.1c-0.5,0.2-1,0.3-1.4,0.4c-0.1-0.3-0.1-0.7-0.2-1
				c0.4-0.1,0.8-0.3,1.2-0.4c0.4-0.2,0.8-0.3,1.1-0.5c0.2,0.3,0.3,0.5,0.5,0.8C63,43.6,62.6,43.9,62,44.1z"/>
		</g>
	</g>
	<path class="st1" d="M8.8,29.3c0,1,0,2,0,2.9c-0.5,1.6-0.3,2.8-0.1,3.4c0,0,1.9,7,19.2,8.6c0.1,0,0.2,0,0.3,0
		c0.4,0,0.6,0.1,0.8,0.1c4.3,0.3,7.8,0,10-0.3c-5.8,0.9-10.6,1-14.1,0.8c-6.2-0.3-9-1.3-10.3-1.8c-3.1-1.2-7.4-3-8.2-6.8
		C5.7,33,8.1,30.1,8.8,29.3z"/>
	<path class="st1" d="M8.8,27.3c-5.6,6.3-4.6,10-4.4,10.8c2.1,6.6,16.5,7.3,21.6,7.5c5.4,0.2,9.9-0.4,12.8-0.9
		c-3.1,1-8.2,2.4-14.5,2.4c-7.5,0-21.7-1.9-23.3-8.5c-0.8-3.2,1.5-6.8,2.1-7.7c1.9-3,4.5-4.5,5.6-5C8.8,26.3,8.8,26.8,8.8,27.3z"/>
	<g>
		<g>
			<path class="st1" d="M103.6,0.7L103.6,0.7c-2.9,0-4.8,3.2-3.3,5.7l3.3,5.7l3.3-5.7C108.4,3.9,106.5,0.7,103.6,0.7z M103.6,7.6
				c-1.6-1.1-2.5-2.4-2.4-3.3c0-0.2,0.1-0.8,0.5-1.1c0.2-0.1,0.4-0.2,0.7-0.2c0.8,0,1.2,0.6,1.2,0.6c0-0.1,0.4-0.6,1.1-0.6
				c0.2,0,0.5,0,0.8,0.2c0.4,0.3,0.5,0.8,0.5,1.1C106.1,5.2,105.1,6.5,103.6,7.6z"/>
		</g>
	</g>
</g>
</svg>
